<mxfile host="app.diagrams.net" modified="2024-01-21T18:41:29.191Z" agent="Mozilla/5.0 (Windows NT 10.0; Win64; x64) AppleWebKit/537.36 (KHTML, like Gecko) Chrome/120.0.0.0 Safari/537.36 Edg/120.0.0.0" etag="IlwHPI-ckQOfv6I6DuGK" version="22.1.21" type="device" pages="2">
  <diagram name="Seite-1" id="aW67HjlRm24LwYOiL057">
    <mxGraphModel dx="1446" dy="933" grid="1" gridSize="10" guides="1" tooltips="1" connect="1" arrows="1" fold="1" page="1" pageScale="1" pageWidth="1100" pageHeight="850" math="0" shadow="0">
      <root>
        <mxCell id="0" />
        <mxCell id="1" parent="0" />
        <mxCell id="DtLIVwq0TkmXwF91WTJ8-4" style="edgeStyle=orthogonalEdgeStyle;rounded=0;orthogonalLoop=1;jettySize=auto;html=1;" edge="1" parent="1" source="DtLIVwq0TkmXwF91WTJ8-1" target="DtLIVwq0TkmXwF91WTJ8-2">
          <mxGeometry relative="1" as="geometry">
            <Array as="points">
              <mxPoint x="400" y="510" />
              <mxPoint x="400" y="510" />
            </Array>
          </mxGeometry>
        </mxCell>
        <mxCell id="DtLIVwq0TkmXwF91WTJ8-6" value="HTTP Response" style="edgeLabel;html=1;align=center;verticalAlign=middle;resizable=0;points=[];" vertex="1" connectable="0" parent="DtLIVwq0TkmXwF91WTJ8-4">
          <mxGeometry x="0.1351" y="3" relative="1" as="geometry">
            <mxPoint x="12" y="-3" as="offset" />
          </mxGeometry>
        </mxCell>
        <mxCell id="DtLIVwq0TkmXwF91WTJ8-17" style="edgeStyle=orthogonalEdgeStyle;rounded=0;orthogonalLoop=1;jettySize=auto;html=1;exitX=0.5;exitY=0;exitDx=0;exitDy=0;" edge="1" parent="1" source="DtLIVwq0TkmXwF91WTJ8-1" target="DtLIVwq0TkmXwF91WTJ8-15">
          <mxGeometry relative="1" as="geometry" />
        </mxCell>
        <mxCell id="DtLIVwq0TkmXwF91WTJ8-1" value="FastAPI" style="shape=module;align=left;spacingLeft=20;align=center;verticalAlign=top;whiteSpace=wrap;html=1;" vertex="1" parent="1">
          <mxGeometry x="460" y="470" width="100" height="50" as="geometry" />
        </mxCell>
        <mxCell id="DtLIVwq0TkmXwF91WTJ8-2" value="GUI" style="shape=module;align=left;spacingLeft=20;align=center;verticalAlign=top;whiteSpace=wrap;html=1;" vertex="1" parent="1">
          <mxGeometry x="260" y="470" width="100" height="50" as="geometry" />
        </mxCell>
        <mxCell id="DtLIVwq0TkmXwF91WTJ8-3" style="edgeStyle=orthogonalEdgeStyle;rounded=0;orthogonalLoop=1;jettySize=auto;html=1;entryX=0;entryY=0;entryDx=0;entryDy=15;entryPerimeter=0;" edge="1" parent="1" target="DtLIVwq0TkmXwF91WTJ8-1">
          <mxGeometry relative="1" as="geometry">
            <mxPoint x="360" y="485" as="sourcePoint" />
          </mxGeometry>
        </mxCell>
        <mxCell id="DtLIVwq0TkmXwF91WTJ8-5" value="HTTP Request" style="edgeLabel;html=1;align=center;verticalAlign=middle;resizable=0;points=[];" vertex="1" connectable="0" parent="DtLIVwq0TkmXwF91WTJ8-3">
          <mxGeometry x="-0.4183" relative="1" as="geometry">
            <mxPoint x="18" as="offset" />
          </mxGeometry>
        </mxCell>
        <mxCell id="DtLIVwq0TkmXwF91WTJ8-40" style="edgeStyle=orthogonalEdgeStyle;rounded=0;orthogonalLoop=1;jettySize=auto;html=1;exitX=0;exitY=0;exitDx=0;exitDy=35;exitPerimeter=0;entryX=1;entryY=0.5;entryDx=0;entryDy=0;" edge="1" parent="1" source="DtLIVwq0TkmXwF91WTJ8-7" target="DtLIVwq0TkmXwF91WTJ8-1">
          <mxGeometry relative="1" as="geometry">
            <Array as="points">
              <mxPoint x="620" y="445" />
              <mxPoint x="620" y="495" />
            </Array>
          </mxGeometry>
        </mxCell>
        <mxCell id="DtLIVwq0TkmXwF91WTJ8-42" value="results" style="edgeLabel;html=1;align=center;verticalAlign=middle;resizable=0;points=[];" vertex="1" connectable="0" parent="DtLIVwq0TkmXwF91WTJ8-40">
          <mxGeometry x="-0.41" y="2" relative="1" as="geometry">
            <mxPoint as="offset" />
          </mxGeometry>
        </mxCell>
        <mxCell id="DtLIVwq0TkmXwF91WTJ8-7" value="supervised Models" style="shape=module;align=left;spacingLeft=20;align=center;verticalAlign=top;whiteSpace=wrap;html=1;" vertex="1" parent="1">
          <mxGeometry x="630" y="410" width="100" height="50" as="geometry" />
        </mxCell>
        <mxCell id="DtLIVwq0TkmXwF91WTJ8-22" style="edgeStyle=orthogonalEdgeStyle;rounded=0;orthogonalLoop=1;jettySize=auto;html=1;exitX=0;exitY=0;exitDx=0;exitDy=35;exitPerimeter=0;entryX=0.5;entryY=1;entryDx=0;entryDy=0;" edge="1" parent="1" source="DtLIVwq0TkmXwF91WTJ8-8" target="DtLIVwq0TkmXwF91WTJ8-1">
          <mxGeometry relative="1" as="geometry" />
        </mxCell>
        <mxCell id="DtLIVwq0TkmXwF91WTJ8-45" value="results" style="edgeLabel;html=1;align=center;verticalAlign=middle;resizable=0;points=[];" vertex="1" connectable="0" parent="DtLIVwq0TkmXwF91WTJ8-22">
          <mxGeometry x="-0.123" y="-1" relative="1" as="geometry">
            <mxPoint as="offset" />
          </mxGeometry>
        </mxCell>
        <mxCell id="DtLIVwq0TkmXwF91WTJ8-8" value="unsupervised Models" style="shape=module;align=left;spacingLeft=20;align=center;verticalAlign=top;whiteSpace=wrap;html=1;" vertex="1" parent="1">
          <mxGeometry x="610" y="530" width="100" height="50" as="geometry" />
        </mxCell>
        <mxCell id="DtLIVwq0TkmXwF91WTJ8-47" style="edgeStyle=orthogonalEdgeStyle;rounded=0;orthogonalLoop=1;jettySize=auto;html=1;exitX=0.5;exitY=1;exitDx=0;exitDy=0;entryX=1;entryY=0.5;entryDx=0;entryDy=0;endArrow=none;endFill=0;" edge="1" parent="1" source="DtLIVwq0TkmXwF91WTJ8-14" target="DtLIVwq0TkmXwF91WTJ8-15">
          <mxGeometry relative="1" as="geometry" />
        </mxCell>
        <mxCell id="DtLIVwq0TkmXwF91WTJ8-14" value="&lt;div style=&quot;box-sizing:border-box;width:100%;background:#e4e4e4;padding:2px;&quot;&gt;users_table&lt;/div&gt;&lt;table style=&quot;width:100%;font-size:1em;&quot; cellpadding=&quot;2&quot; cellspacing=&quot;0&quot;&gt;&lt;tbody&gt;&lt;tr&gt;&lt;td&gt;PK&lt;/td&gt;&lt;td&gt;id&lt;/td&gt;&lt;/tr&gt;&lt;tr&gt;&lt;td&gt;&lt;br&gt;&lt;/td&gt;&lt;td&gt;username&lt;/td&gt;&lt;/tr&gt;&lt;tr&gt;&lt;td&gt;&lt;/td&gt;&lt;td&gt;fullname&lt;br&gt;email&lt;br&gt;password&lt;br&gt;disabled&lt;/td&gt;&lt;/tr&gt;&lt;/tbody&gt;&lt;/table&gt;" style="verticalAlign=top;align=left;overflow=fill;html=1;whiteSpace=wrap;rounded=1;" vertex="1" parent="1">
          <mxGeometry x="570" y="210" width="170" height="120" as="geometry" />
        </mxCell>
        <mxCell id="DtLIVwq0TkmXwF91WTJ8-15" value="Postgres DB" style="shape=datastore;whiteSpace=wrap;html=1;" vertex="1" parent="1">
          <mxGeometry x="480" y="350" width="60" height="60" as="geometry" />
        </mxCell>
        <mxCell id="DtLIVwq0TkmXwF91WTJ8-18" style="edgeStyle=orthogonalEdgeStyle;rounded=0;orthogonalLoop=1;jettySize=auto;html=1;exitX=0.85;exitY=0.95;exitDx=0;exitDy=0;exitPerimeter=0;entryX=0.71;entryY=0;entryDx=0;entryDy=0;entryPerimeter=0;" edge="1" parent="1" source="DtLIVwq0TkmXwF91WTJ8-15" target="DtLIVwq0TkmXwF91WTJ8-1">
          <mxGeometry relative="1" as="geometry" />
        </mxCell>
        <mxCell id="DtLIVwq0TkmXwF91WTJ8-19" style="edgeStyle=orthogonalEdgeStyle;rounded=0;orthogonalLoop=1;jettySize=auto;html=1;exitX=1;exitY=0.25;exitDx=0;exitDy=0;entryX=0;entryY=0;entryDx=0;entryDy=15;entryPerimeter=0;" edge="1" parent="1" source="DtLIVwq0TkmXwF91WTJ8-1" target="DtLIVwq0TkmXwF91WTJ8-7">
          <mxGeometry relative="1" as="geometry" />
        </mxCell>
        <mxCell id="DtLIVwq0TkmXwF91WTJ8-41" value="Inputs" style="edgeLabel;html=1;align=center;verticalAlign=middle;resizable=0;points=[];" vertex="1" connectable="0" parent="DtLIVwq0TkmXwF91WTJ8-19">
          <mxGeometry x="-0.0377" y="-2" relative="1" as="geometry">
            <mxPoint as="offset" />
          </mxGeometry>
        </mxCell>
        <mxCell id="DtLIVwq0TkmXwF91WTJ8-21" style="edgeStyle=orthogonalEdgeStyle;rounded=0;orthogonalLoop=1;jettySize=auto;html=1;exitX=0.75;exitY=1;exitDx=0;exitDy=0;entryX=0;entryY=0;entryDx=0;entryDy=15;entryPerimeter=0;" edge="1" parent="1" source="DtLIVwq0TkmXwF91WTJ8-1" target="DtLIVwq0TkmXwF91WTJ8-8">
          <mxGeometry relative="1" as="geometry" />
        </mxCell>
        <mxCell id="DtLIVwq0TkmXwF91WTJ8-44" value="Inputs" style="edgeLabel;html=1;align=center;verticalAlign=middle;resizable=0;points=[];" vertex="1" connectable="0" parent="DtLIVwq0TkmXwF91WTJ8-21">
          <mxGeometry x="-0.2371" y="1" relative="1" as="geometry">
            <mxPoint x="12" as="offset" />
          </mxGeometry>
        </mxCell>
        <mxCell id="DtLIVwq0TkmXwF91WTJ8-48" style="edgeStyle=orthogonalEdgeStyle;rounded=0;orthogonalLoop=1;jettySize=auto;html=1;exitX=0.5;exitY=1;exitDx=0;exitDy=0;entryX=0;entryY=0.5;entryDx=0;entryDy=0;endArrow=none;endFill=0;" edge="1" parent="1" source="DtLIVwq0TkmXwF91WTJ8-24" target="DtLIVwq0TkmXwF91WTJ8-15">
          <mxGeometry relative="1" as="geometry" />
        </mxCell>
        <mxCell id="DtLIVwq0TkmXwF91WTJ8-49" style="edgeStyle=orthogonalEdgeStyle;rounded=0;orthogonalLoop=1;jettySize=auto;html=1;exitX=1;exitY=0.608;exitDx=0;exitDy=0;entryX=0;entryY=0.5;entryDx=0;entryDy=0;exitPerimeter=0;" edge="1" parent="1" source="DtLIVwq0TkmXwF91WTJ8-24" target="DtLIVwq0TkmXwF91WTJ8-14">
          <mxGeometry relative="1" as="geometry">
            <Array as="points" />
          </mxGeometry>
        </mxCell>
        <mxCell id="DtLIVwq0TkmXwF91WTJ8-24" value="&lt;div style=&quot;box-sizing:border-box;width:100%;background:#e4e4e4;padding:2px;&quot;&gt;uploaded_items&lt;/div&gt;&lt;table style=&quot;width:100%;font-size:1em;&quot; cellpadding=&quot;2&quot; cellspacing=&quot;0&quot;&gt;&lt;tbody&gt;&lt;tr&gt;&lt;td&gt;PK&lt;/td&gt;&lt;td&gt;id&lt;/td&gt;&lt;/tr&gt;&lt;tr&gt;&lt;td&gt;FK&lt;/td&gt;&lt;td&gt;owner_id&lt;/td&gt;&lt;/tr&gt;&lt;tr&gt;&lt;td&gt;&lt;/td&gt;&lt;td&gt;filename&lt;br&gt;filesize&lt;br&gt;namedb&lt;/td&gt;&lt;/tr&gt;&lt;/tbody&gt;&lt;/table&gt;" style="verticalAlign=top;align=left;overflow=fill;html=1;whiteSpace=wrap;" vertex="1" parent="1">
          <mxGeometry x="290" y="210" width="160" height="100" as="geometry" />
        </mxCell>
      </root>
    </mxGraphModel>
  </diagram>
  <diagram id="FiPgE_usNPGUOrDaX6sP" name="Seite-2">
    <mxGraphModel dx="1446" dy="933" grid="1" gridSize="10" guides="1" tooltips="1" connect="1" arrows="1" fold="1" page="1" pageScale="1" pageWidth="1100" pageHeight="850" math="0" shadow="0">
      <root>
        <mxCell id="0" />
        <mxCell id="1" parent="0" />
        <mxCell id="IhiNiqmtQIxHxGTbF7a--85" value="" style="rounded=0;whiteSpace=wrap;html=1;fillColor=none;" vertex="1" parent="1">
          <mxGeometry x="150" y="30" width="690" height="800" as="geometry" />
        </mxCell>
        <mxCell id="IhiNiqmtQIxHxGTbF7a--88" style="rounded=0;orthogonalLoop=1;jettySize=auto;html=1;" edge="1" parent="1" source="IhiNiqmtQIxHxGTbF7a--1" target="IhiNiqmtQIxHxGTbF7a--12">
          <mxGeometry relative="1" as="geometry" />
        </mxCell>
        <mxCell id="IhiNiqmtQIxHxGTbF7a--89" style="rounded=0;orthogonalLoop=1;jettySize=auto;html=1;entryX=0;entryY=0.5;entryDx=0;entryDy=0;" edge="1" parent="1" source="IhiNiqmtQIxHxGTbF7a--1" target="IhiNiqmtQIxHxGTbF7a--40">
          <mxGeometry relative="1" as="geometry" />
        </mxCell>
        <mxCell id="IhiNiqmtQIxHxGTbF7a--92" style="rounded=0;orthogonalLoop=1;jettySize=auto;html=1;entryX=0;entryY=0.5;entryDx=0;entryDy=0;" edge="1" parent="1" source="IhiNiqmtQIxHxGTbF7a--1" target="IhiNiqmtQIxHxGTbF7a--43">
          <mxGeometry relative="1" as="geometry" />
        </mxCell>
        <mxCell id="IhiNiqmtQIxHxGTbF7a--93" style="rounded=0;orthogonalLoop=1;jettySize=auto;html=1;exitX=0.5;exitY=0.5;exitDx=0;exitDy=0;exitPerimeter=0;entryX=0;entryY=0.25;entryDx=0;entryDy=0;" edge="1" parent="1" source="IhiNiqmtQIxHxGTbF7a--1" target="IhiNiqmtQIxHxGTbF7a--35">
          <mxGeometry relative="1" as="geometry" />
        </mxCell>
        <mxCell id="IhiNiqmtQIxHxGTbF7a--94" style="rounded=0;orthogonalLoop=1;jettySize=auto;html=1;entryX=0;entryY=0.25;entryDx=0;entryDy=0;" edge="1" parent="1" source="IhiNiqmtQIxHxGTbF7a--1" target="IhiNiqmtQIxHxGTbF7a--67">
          <mxGeometry relative="1" as="geometry" />
        </mxCell>
        <mxCell id="IhiNiqmtQIxHxGTbF7a--1" value="Actor" style="shape=umlActor;verticalLabelPosition=bottom;verticalAlign=top;html=1;" vertex="1" parent="1">
          <mxGeometry x="60" y="120" width="30" height="60" as="geometry" />
        </mxCell>
        <mxCell id="IhiNiqmtQIxHxGTbF7a--24" style="edgeStyle=orthogonalEdgeStyle;rounded=0;orthogonalLoop=1;jettySize=auto;html=1;exitX=1;exitY=0.5;exitDx=0;exitDy=0;entryX=0;entryY=0.5;entryDx=0;entryDy=0;" edge="1" parent="1" source="IhiNiqmtQIxHxGTbF7a--12" target="IhiNiqmtQIxHxGTbF7a--14">
          <mxGeometry relative="1" as="geometry" />
        </mxCell>
        <mxCell id="IhiNiqmtQIxHxGTbF7a--25" value="&amp;lt;&amp;lt;Included&amp;gt;&amp;gt;" style="edgeLabel;html=1;align=center;verticalAlign=middle;resizable=0;points=[];" vertex="1" connectable="0" parent="IhiNiqmtQIxHxGTbF7a--24">
          <mxGeometry x="-0.45" y="-2" relative="1" as="geometry">
            <mxPoint x="18" y="-2" as="offset" />
          </mxGeometry>
        </mxCell>
        <mxCell id="IhiNiqmtQIxHxGTbF7a--12" value="Registration" style="ellipse;whiteSpace=wrap;html=1;" vertex="1" parent="1">
          <mxGeometry x="210" y="100" width="140" height="70" as="geometry" />
        </mxCell>
        <mxCell id="IhiNiqmtQIxHxGTbF7a--14" value="Fill up Registration form" style="ellipse;whiteSpace=wrap;html=1;" vertex="1" parent="1">
          <mxGeometry x="450" y="100" width="140" height="70" as="geometry" />
        </mxCell>
        <mxCell id="IhiNiqmtQIxHxGTbF7a--15" value="" style="shape=ellipse;container=1;horizontal=1;horizontalStack=0;resizeParent=1;resizeParentMax=0;resizeLast=0;html=1;dashed=0;collapsible=0;" vertex="1" parent="1">
          <mxGeometry x="510" y="350" width="180" height="120" as="geometry" />
        </mxCell>
        <mxCell id="IhiNiqmtQIxHxGTbF7a--16" value="Log-in" style="html=1;strokeColor=none;fillColor=none;align=center;verticalAlign=middle;rotatable=0;whiteSpace=wrap;" vertex="1" parent="IhiNiqmtQIxHxGTbF7a--15">
          <mxGeometry width="180" height="30" as="geometry" />
        </mxCell>
        <mxCell id="IhiNiqmtQIxHxGTbF7a--17" value="" style="line;strokeWidth=1;fillColor=none;rotatable=0;labelPosition=right;points=[];portConstraint=eastwest;dashed=0;resizeWidth=1;" vertex="1" parent="IhiNiqmtQIxHxGTbF7a--15">
          <mxGeometry x="9" y="30" width="162" height="10" as="geometry" />
        </mxCell>
        <mxCell id="IhiNiqmtQIxHxGTbF7a--18" value="&lt;b&gt;extension points&lt;/b&gt;" style="text;html=1;align=left;verticalAlign=middle;rotatable=0;fillColor=none;strokeColor=none;whiteSpace=wrap;" vertex="1" parent="IhiNiqmtQIxHxGTbF7a--15">
          <mxGeometry x="20" y="40" width="180" height="30" as="geometry" />
        </mxCell>
        <mxCell id="IhiNiqmtQIxHxGTbF7a--19" value="Invalid password entered&amp;nbsp;&lt;br&gt;Aborted triggered" style="text;html=1;align=left;verticalAlign=middle;rotatable=0;spacingLeft=25;fillColor=none;strokeColor=none;whiteSpace=wrap;" vertex="1" parent="IhiNiqmtQIxHxGTbF7a--15">
          <mxGeometry x="-9" y="60" width="180" height="30" as="geometry" />
        </mxCell>
        <mxCell id="IhiNiqmtQIxHxGTbF7a--22" value="Handle invalid password" style="ellipse;whiteSpace=wrap;html=1;" vertex="1" parent="1">
          <mxGeometry x="510" y="550" width="140" height="70" as="geometry" />
        </mxCell>
        <mxCell id="IhiNiqmtQIxHxGTbF7a--23" value="Handle abort" style="ellipse;whiteSpace=wrap;html=1;" vertex="1" parent="1">
          <mxGeometry x="670" y="540" width="140" height="70" as="geometry" />
        </mxCell>
        <mxCell id="IhiNiqmtQIxHxGTbF7a--26" style="edgeStyle=orthogonalEdgeStyle;rounded=0;orthogonalLoop=1;jettySize=auto;html=1;entryX=0.389;entryY=1;entryDx=0;entryDy=0;entryPerimeter=0;" edge="1" parent="1" source="IhiNiqmtQIxHxGTbF7a--22" target="IhiNiqmtQIxHxGTbF7a--15">
          <mxGeometry relative="1" as="geometry" />
        </mxCell>
        <mxCell id="IhiNiqmtQIxHxGTbF7a--30" value="&amp;lt;&amp;lt;excluded&amp;gt;&amp;gt;" style="edgeLabel;html=1;align=center;verticalAlign=middle;resizable=0;points=[];" vertex="1" connectable="0" parent="IhiNiqmtQIxHxGTbF7a--26">
          <mxGeometry x="-0.225" y="-2" relative="1" as="geometry">
            <mxPoint as="offset" />
          </mxGeometry>
        </mxCell>
        <mxCell id="IhiNiqmtQIxHxGTbF7a--28" style="rounded=0;orthogonalLoop=1;jettySize=auto;html=1;exitX=0;exitY=0;exitDx=0;exitDy=0;entryX=0.67;entryY=1.013;entryDx=0;entryDy=0;entryPerimeter=0;strokeColor=default;" edge="1" parent="1" source="IhiNiqmtQIxHxGTbF7a--23" target="IhiNiqmtQIxHxGTbF7a--15">
          <mxGeometry relative="1" as="geometry" />
        </mxCell>
        <mxCell id="IhiNiqmtQIxHxGTbF7a--29" value="&amp;lt;&amp;lt;excluded&amp;gt;&amp;gt;" style="edgeLabel;html=1;align=center;verticalAlign=middle;resizable=0;points=[];" vertex="1" connectable="0" parent="IhiNiqmtQIxHxGTbF7a--28">
          <mxGeometry x="0.1918" y="2" relative="1" as="geometry">
            <mxPoint as="offset" />
          </mxGeometry>
        </mxCell>
        <mxCell id="IhiNiqmtQIxHxGTbF7a--32" value="" style="shape=ellipse;container=1;horizontal=1;horizontalStack=0;resizeParent=1;resizeParentMax=0;resizeLast=0;html=1;dashed=0;collapsible=0;" vertex="1" parent="1">
          <mxGeometry x="190" y="490" width="180" height="120" as="geometry" />
        </mxCell>
        <mxCell id="IhiNiqmtQIxHxGTbF7a--33" value="Import File" style="html=1;strokeColor=none;fillColor=none;align=center;verticalAlign=middle;rotatable=0;whiteSpace=wrap;" vertex="1" parent="IhiNiqmtQIxHxGTbF7a--32">
          <mxGeometry x="1" width="180" height="30" as="geometry" />
        </mxCell>
        <mxCell id="IhiNiqmtQIxHxGTbF7a--34" value="" style="line;strokeWidth=1;fillColor=none;rotatable=0;labelPosition=right;points=[];portConstraint=eastwest;dashed=0;resizeWidth=1;" vertex="1" parent="IhiNiqmtQIxHxGTbF7a--32">
          <mxGeometry x="9" y="30" width="162" height="10" as="geometry" />
        </mxCell>
        <mxCell id="IhiNiqmtQIxHxGTbF7a--35" value="extension points" style="text;html=1;align=left;verticalAlign=middle;rotatable=0;fillColor=none;strokeColor=none;whiteSpace=wrap;fontStyle=1" vertex="1" parent="IhiNiqmtQIxHxGTbF7a--32">
          <mxGeometry x="1" y="45" width="159" height="25" as="geometry" />
        </mxCell>
        <mxCell id="IhiNiqmtQIxHxGTbF7a--36" value="Invalid file format" style="text;html=1;align=left;verticalAlign=middle;rotatable=0;spacingLeft=25;fillColor=none;strokeColor=none;whiteSpace=wrap;" vertex="1" parent="IhiNiqmtQIxHxGTbF7a--32">
          <mxGeometry x="-9" y="70" width="180" height="30" as="geometry" />
        </mxCell>
        <mxCell id="IhiNiqmtQIxHxGTbF7a--44" style="rounded=0;orthogonalLoop=1;jettySize=auto;html=1;exitX=1;exitY=0.5;exitDx=0;exitDy=0;" edge="1" parent="1" source="IhiNiqmtQIxHxGTbF7a--40" target="IhiNiqmtQIxHxGTbF7a--16">
          <mxGeometry relative="1" as="geometry" />
        </mxCell>
        <mxCell id="IhiNiqmtQIxHxGTbF7a--49" value="&amp;lt;&amp;lt;included&amp;gt;&amp;gt;" style="edgeLabel;html=1;align=center;verticalAlign=middle;resizable=0;points=[];" vertex="1" connectable="0" parent="IhiNiqmtQIxHxGTbF7a--44">
          <mxGeometry x="0.0079" y="2" relative="1" as="geometry">
            <mxPoint as="offset" />
          </mxGeometry>
        </mxCell>
        <mxCell id="IhiNiqmtQIxHxGTbF7a--40" value="predict the data with unsupervised models" style="ellipse;whiteSpace=wrap;html=1;" vertex="1" parent="1">
          <mxGeometry x="220" y="190" width="140" height="70" as="geometry" />
        </mxCell>
        <mxCell id="IhiNiqmtQIxHxGTbF7a--46" style="rounded=0;orthogonalLoop=1;jettySize=auto;html=1;entryX=0.035;entryY=1.144;entryDx=0;entryDy=0;entryPerimeter=0;" edge="1" parent="1" source="IhiNiqmtQIxHxGTbF7a--42" target="IhiNiqmtQIxHxGTbF7a--16">
          <mxGeometry relative="1" as="geometry" />
        </mxCell>
        <mxCell id="IhiNiqmtQIxHxGTbF7a--51" value="&amp;lt;&amp;lt;included&amp;gt;&amp;gt;" style="edgeLabel;html=1;align=center;verticalAlign=middle;resizable=0;points=[];" vertex="1" connectable="0" parent="IhiNiqmtQIxHxGTbF7a--46">
          <mxGeometry x="-0.3196" y="1" relative="1" as="geometry">
            <mxPoint as="offset" />
          </mxGeometry>
        </mxCell>
        <mxCell id="IhiNiqmtQIxHxGTbF7a--42" value="show all uploaded files" style="ellipse;whiteSpace=wrap;html=1;" vertex="1" parent="1">
          <mxGeometry x="220" y="290" width="140" height="70" as="geometry" />
        </mxCell>
        <mxCell id="IhiNiqmtQIxHxGTbF7a--43" value="delete a file with its name" style="ellipse;whiteSpace=wrap;html=1;" vertex="1" parent="1">
          <mxGeometry x="210" y="390" width="140" height="70" as="geometry" />
        </mxCell>
        <mxCell id="IhiNiqmtQIxHxGTbF7a--47" style="rounded=0;orthogonalLoop=1;jettySize=auto;html=1;exitX=1;exitY=0.5;exitDx=0;exitDy=0;entryX=0.05;entryY=0.333;entryDx=0;entryDy=0;entryPerimeter=0;" edge="1" parent="1" source="IhiNiqmtQIxHxGTbF7a--43" target="IhiNiqmtQIxHxGTbF7a--19">
          <mxGeometry relative="1" as="geometry" />
        </mxCell>
        <mxCell id="IhiNiqmtQIxHxGTbF7a--52" value="&amp;lt;&amp;lt;included&amp;gt;&amp;gt;" style="edgeLabel;html=1;align=center;verticalAlign=middle;resizable=0;points=[];" vertex="1" connectable="0" parent="IhiNiqmtQIxHxGTbF7a--47">
          <mxGeometry x="-0.3735" y="2" relative="1" as="geometry">
            <mxPoint as="offset" />
          </mxGeometry>
        </mxCell>
        <mxCell id="IhiNiqmtQIxHxGTbF7a--48" style="rounded=0;orthogonalLoop=1;jettySize=auto;html=1;exitX=1;exitY=0.5;exitDx=0;exitDy=0;entryX=0.153;entryY=0.872;entryDx=0;entryDy=0;entryPerimeter=0;" edge="1" parent="1" source="IhiNiqmtQIxHxGTbF7a--32" target="IhiNiqmtQIxHxGTbF7a--15">
          <mxGeometry relative="1" as="geometry" />
        </mxCell>
        <mxCell id="IhiNiqmtQIxHxGTbF7a--53" value="&amp;lt;&amp;lt;included&amp;gt;&amp;gt;" style="edgeLabel;html=1;align=center;verticalAlign=middle;resizable=0;points=[];" vertex="1" connectable="0" parent="IhiNiqmtQIxHxGTbF7a--48">
          <mxGeometry x="-0.1891" y="-2" relative="1" as="geometry">
            <mxPoint as="offset" />
          </mxGeometry>
        </mxCell>
        <mxCell id="IhiNiqmtQIxHxGTbF7a--76" style="rounded=0;orthogonalLoop=1;jettySize=auto;html=1;exitX=0.5;exitY=0;exitDx=0;exitDy=0;entryX=0.5;entryY=1;entryDx=0;entryDy=0;" edge="1" parent="1" source="IhiNiqmtQIxHxGTbF7a--64" target="IhiNiqmtQIxHxGTbF7a--32">
          <mxGeometry relative="1" as="geometry" />
        </mxCell>
        <mxCell id="IhiNiqmtQIxHxGTbF7a--77" value="&amp;lt;&amp;lt;included&amp;gt;&amp;gt;" style="edgeLabel;html=1;align=center;verticalAlign=middle;resizable=0;points=[];" vertex="1" connectable="0" parent="IhiNiqmtQIxHxGTbF7a--76">
          <mxGeometry x="0.0244" y="2" relative="1" as="geometry">
            <mxPoint as="offset" />
          </mxGeometry>
        </mxCell>
        <mxCell id="IhiNiqmtQIxHxGTbF7a--64" value="" style="shape=ellipse;container=1;horizontal=1;horizontalStack=0;resizeParent=1;resizeParentMax=0;resizeLast=0;html=1;dashed=0;collapsible=0;" vertex="1" parent="1">
          <mxGeometry x="190" y="670" width="180" height="120" as="geometry" />
        </mxCell>
        <mxCell id="IhiNiqmtQIxHxGTbF7a--65" value="predict the data with unsupervised models" style="html=1;strokeColor=none;fillColor=none;align=center;verticalAlign=middle;rotatable=0;whiteSpace=wrap;" vertex="1" parent="IhiNiqmtQIxHxGTbF7a--64">
          <mxGeometry y="10" width="180" height="30" as="geometry" />
        </mxCell>
        <mxCell id="IhiNiqmtQIxHxGTbF7a--66" value="" style="line;strokeWidth=1;fillColor=none;rotatable=0;labelPosition=right;points=[];portConstraint=eastwest;dashed=0;resizeWidth=1;" vertex="1" parent="IhiNiqmtQIxHxGTbF7a--64">
          <mxGeometry x="9" y="35" width="162" height="10" as="geometry" />
        </mxCell>
        <mxCell id="IhiNiqmtQIxHxGTbF7a--67" value="extension points" style="text;html=1;align=left;verticalAlign=middle;rotatable=0;fillColor=none;strokeColor=none;whiteSpace=wrap;fontStyle=1" vertex="1" parent="IhiNiqmtQIxHxGTbF7a--64">
          <mxGeometry x="1" y="45" width="159" height="25" as="geometry" />
        </mxCell>
        <mxCell id="IhiNiqmtQIxHxGTbF7a--68" value="Invalid file format" style="text;html=1;align=left;verticalAlign=middle;rotatable=0;spacingLeft=25;fillColor=none;strokeColor=none;whiteSpace=wrap;" vertex="1" parent="IhiNiqmtQIxHxGTbF7a--64">
          <mxGeometry x="-9" y="70" width="180" height="30" as="geometry" />
        </mxCell>
        <mxCell id="IhiNiqmtQIxHxGTbF7a--71" value="Handle invalid file format" style="ellipse;whiteSpace=wrap;html=1;" vertex="1" parent="1">
          <mxGeometry x="530" y="670" width="140" height="70" as="geometry" />
        </mxCell>
        <mxCell id="IhiNiqmtQIxHxGTbF7a--78" style="rounded=0;orthogonalLoop=1;jettySize=auto;html=1;exitX=1;exitY=0.5;exitDx=0;exitDy=0;entryX=0.244;entryY=0.967;entryDx=0;entryDy=0;entryPerimeter=0;" edge="1" parent="1" source="IhiNiqmtQIxHxGTbF7a--64" target="IhiNiqmtQIxHxGTbF7a--15">
          <mxGeometry relative="1" as="geometry" />
        </mxCell>
        <mxCell id="IhiNiqmtQIxHxGTbF7a--79" value="&amp;lt;&amp;lt;included&amp;gt;&amp;gt;" style="edgeLabel;html=1;align=center;verticalAlign=middle;resizable=0;points=[];" vertex="1" connectable="0" parent="IhiNiqmtQIxHxGTbF7a--78">
          <mxGeometry x="-0.105" relative="1" as="geometry">
            <mxPoint as="offset" />
          </mxGeometry>
        </mxCell>
        <mxCell id="IhiNiqmtQIxHxGTbF7a--80" style="rounded=0;orthogonalLoop=1;jettySize=auto;html=1;exitX=0;exitY=0.5;exitDx=0;exitDy=0;entryX=0.862;entryY=0.881;entryDx=0;entryDy=0;entryPerimeter=0;jumpStyle=arc;jumpSize=11;" edge="1" parent="1" source="IhiNiqmtQIxHxGTbF7a--71" target="IhiNiqmtQIxHxGTbF7a--32">
          <mxGeometry relative="1" as="geometry" />
        </mxCell>
        <mxCell id="IhiNiqmtQIxHxGTbF7a--82" value="&amp;lt;&amp;lt;excluded&amp;gt;&amp;gt;" style="edgeLabel;html=1;align=center;verticalAlign=middle;resizable=0;points=[];" vertex="1" connectable="0" parent="IhiNiqmtQIxHxGTbF7a--80">
          <mxGeometry x="-0.1352" y="1" relative="1" as="geometry">
            <mxPoint x="10" as="offset" />
          </mxGeometry>
        </mxCell>
        <mxCell id="IhiNiqmtQIxHxGTbF7a--81" style="rounded=0;orthogonalLoop=1;jettySize=auto;html=1;entryX=0.992;entryY=0.644;entryDx=0;entryDy=0;entryPerimeter=0;" edge="1" parent="1" source="IhiNiqmtQIxHxGTbF7a--71" target="IhiNiqmtQIxHxGTbF7a--64">
          <mxGeometry relative="1" as="geometry" />
        </mxCell>
        <mxCell id="IhiNiqmtQIxHxGTbF7a--83" value="&amp;lt;&amp;lt;excluded&amp;gt;&amp;gt;" style="edgeLabel;html=1;align=center;verticalAlign=middle;resizable=0;points=[];" vertex="1" connectable="0" parent="IhiNiqmtQIxHxGTbF7a--81">
          <mxGeometry x="0.0818" y="3" relative="1" as="geometry">
            <mxPoint as="offset" />
          </mxGeometry>
        </mxCell>
        <mxCell id="IhiNiqmtQIxHxGTbF7a--86" value="Smart steel detection system" style="text;html=1;strokeColor=none;fillColor=none;align=center;verticalAlign=middle;whiteSpace=wrap;rounded=0;fontStyle=1;fontSize=17;" vertex="1" parent="1">
          <mxGeometry x="170" y="40" width="240" height="30" as="geometry" />
        </mxCell>
        <mxCell id="IhiNiqmtQIxHxGTbF7a--90" style="rounded=0;orthogonalLoop=1;jettySize=auto;html=1;entryX=0.012;entryY=0.396;entryDx=0;entryDy=0;entryPerimeter=0;" edge="1" parent="1" source="IhiNiqmtQIxHxGTbF7a--1" target="IhiNiqmtQIxHxGTbF7a--42">
          <mxGeometry relative="1" as="geometry" />
        </mxCell>
      </root>
    </mxGraphModel>
  </diagram>
</mxfile>
